<svg id="Layer_1" data-name="Layer 1" xmlns="http://www.w3.org/2000/svg" viewBox="0 0 24 23.41"><title>github-logo</title><path d="M12,0A12,12,0,0,0,8.2,23.39c.6.1.83-.26.83-.57s0-1.23,0-2.23c-3,.55-3.79-.73-4-1.41a4.36,4.36,0,0,0-1.23-1.7c-.42-.22-1-.78,0-.79a2.4,2.4,0,0,1,1.85,1.23,2.56,2.56,0,0,0,3.49,1,2.52,2.52,0,0,1,.76-1.6C7.17,17,4.38,16,4.38,11.37A4.67,4.67,0,0,1,5.61,8.15,4.31,4.31,0,0,1,5.73,5s1-.32,3.3,1.23a11.31,11.31,0,0,1,6,0C17.32,4.64,18.33,5,18.33,5a4.31,4.31,0,0,1,.12,3.18,4.64,4.64,0,0,1,1.23,3.23c0,4.61-2.8,5.63-5.47,5.93A2.84,2.84,0,0,1,15,19.52c0,1.6,0,2.9,0,3.3s.22.69.83.57A12,12,0,0,0,12,0Z" style="fill:#ccc"/></svg>