<svg id="Layer_1" data-name="Layer 1" xmlns="http://www.w3.org/2000/svg" viewBox="0 0 25 25"><title>linkedin-logo</title><circle cx="12.5" cy="12.5" r="12.5" style="fill:#ccc"/><path d="M7.5,8.16a1.29,1.29,0,1,1,0-2.58,1.29,1.29,0,1,1,0,2.58ZM6.23,17.49V9.18H8.81v8.31Z" style="fill:#fff"/><path d="M10.88,11.83c0-1,0-1.9-.07-2.65h2.24l.12,1.16h.05A3,3,0,0,1,15.8,9c1.7,0,3,1.14,3,3.59v4.91H16.19V12.88c0-1.07-.37-1.8-1.31-1.8a1.42,1.42,0,0,0-1.33,1,1.86,1.86,0,0,0-.08.65v4.79H10.88Z" style="fill:#fff"/></svg>