<?xml version="1.0" encoding="utf-8"?>
<!-- Generator: Adobe Illustrator 21.0.2, SVG Export Plug-In . SVG Version: 6.00 Build 0)  -->
<svg version="1.1" id="Layer_1" xmlns="http://www.w3.org/2000/svg" xmlns:xlink="http://www.w3.org/1999/xlink" x="0px" y="0px"
	 viewBox="0 0 25 25" style="enable-background:new 0 0 25 25;" xml:space="preserve">
<style type="text/css">
	.st0{fill:#CCCCCC;}
	.st1{fill:#FFFFFF;}
</style>
<circle class="st0" cx="12.5" cy="12.5" r="12.5"/>
<title>email-logo</title>
<g>
	<path class="st1" d="M16.8,18.6v-4h1.3V20h-12v-5.3h1.3v4L16.8,18.6z"/>
	<path class="st1" d="M9,14.3l6.5,1.4l0.3-1.3L9.3,13C9.3,13,9,14.3,9,14.3z M9.8,11.2l6,2.8l0.6-1.2l-6-2.8L9.8,11.2z M11.5,8.2
		l5.1,4.3l0.8-1l-5.1-4.3C12.4,7.2,11.5,8.2,11.5,8.2z M14.8,5l-1.1,0.8l4,5.3l1.1-0.8L14.8,5z M8.8,17.3h6.7V16H8.8V17.3z"/>
</g>
</svg>
